<?xml version="1.0" standalone="no"?>
<!DOCTYPE svg PUBLIC "-//W3C//DTD SVG 20010904//EN"
 "http://www.w3.org/TR/2001/REC-SVG-20010904/DTD/svg10.dtd">
<svg version="1.0" xmlns="http://www.w3.org/2000/svg"
 width="400.000000pt" height="400.000000pt" viewBox="0 0 400.000000 400.000000"
 preserveAspectRatio="xMidYMid meet">
<metadata>
Created by potrace 1.14, written by Peter Selinger 2001-2017
</metadata>
<g transform="translate(0.000000,400.000000) scale(0.100000,-0.100000)"
fill="#000000" stroke="none">
<path d="M1890 3870 c0 -3 -6 -7 -12 -7 -126 -2 -343 -82 -488 -178 -83 -55
-210 -177 -270 -259 -99 -136 -178 -322 -205 -485 -21 -127 -13 -322 17 -436
18 -66 28 -89 39 -86 8 2 85 4 172 5 86 1 157 5 157 9 0 4 -6 22 -14 40 -53
129 -68 344 -32 482 35 136 129 293 227 382 170 154 416 232 628 201 239 -35
421 -149 551 -346 116 -175 157 -383 115 -588 -22 -104 -55 -173 -215 -449
-73 -126 -144 -250 -158 -275 -14 -25 -28 -49 -32 -55 -4 -5 -18 -28 -30 -50
-73 -131 -265 -462 -276 -475 -10 -12 3 -41 77 -168 49 -85 89 -158 89 -163 0
-17 19 -9 34 14 7 12 100 173 206 357 107 184 268 463 359 620 91 157 182 323
202 370 59 136 88 273 90 420 1 70 -11 210 -18 223 -2 4 -6 20 -9 35 -17 97
-85 254 -160 370 -83 128 -243 282 -353 340 -132 70 -244 116 -316 128 -16 2
-55 10 -85 16 -63 12 -290 19 -290 8z"/>
<path d="M1007 2343 c-2 -1 -25 -5 -52 -8 -349 -44 -671 -276 -836 -602 -37
-74 -83 -201 -94 -261 -3 -15 -8 -38 -11 -52 -14 -56 -12 -296 3 -375 51 -272
196 -516 403 -677 41 -32 80 -63 87 -68 7 -6 14 -10 16 -10 2 0 36 -17 74 -39
78 -42 241 -97 318 -107 28 -3 54 -9 60 -12 5 -3 58 -7 118 -8 110 -2 261 23
381 62 137 45 322 162 428 271 l48 48 -38 55 c-21 30 -63 99 -94 154 -54 94
-57 97 -69 75 -18 -34 -126 -145 -179 -184 -209 -153 -500 -191 -740 -97 -108
43 -181 91 -266 176 -157 157 -237 349 -233 561 6 315 192 590 481 711 43 19
78 32 78 30 0 -2 21 3 48 11 40 13 148 16 739 17 381 1 694 4 696 7 8 8 137
231 137 235 0 2 11 22 25 44 14 22 25 41 25 42 0 4 -1550 4 -1553 1z"/>
<path d="M3077 2270 c-15 -32 -52 -101 -82 -154 -30 -52 -55 -97 -55 -100 0
-4 17 -6 38 -6 46 0 162 -31 236 -64 162 -72 309 -221 386 -390 51 -113 70
-207 66 -336 -4 -127 -7 -147 -38 -235 -95 -275 -332 -474 -618 -519 -220 -35
-454 29 -619 169 -41 34 -113 113 -138 150 -21 31 -181 304 -258 440 -70 125
-371 645 -390 675 l-22 35 -187 0 c-182 1 -204 -3 -177 -30 9 -9 113 -187 179
-305 13 -25 28 -49 32 -55 5 -5 19 -30 32 -55 79 -146 488 -845 525 -897 137
-195 332 -337 562 -412 47 -16 104 -31 126 -35 22 -3 56 -9 75 -13 45 -9 231
-8 290 1 372 61 660 265 833 588 40 76 83 193 104 288 18 80 25 292 12 383
-34 234 -150 461 -323 633 -146 144 -292 228 -491 282 l-71 19 -27 -57z"/>
</g>
</svg>
